<svg viewBox="0 0 500 500" width="500" height="500" xmlns="http://www.w3.org/2000/svg">
    <rect width="500" height="500" fill="#1a1a2e"/>
    <rect x="250" y="250" width="50" height="50" fill="none" stroke="#c9a66b" stroke-width="2"/>
    <rect x="200" y="250" width="50" height="50" fill="none" stroke="#c9a66b" stroke-width="2"/>
    <rect x="200" y="300" width="100" height="100" fill="none" stroke="#c9a66b" stroke-width="2"/>
    <rect x="300" y="250" width="150" height="150" fill="none" stroke="#c9a66b" stroke-width="2"/>
    <rect x="200" y="100" width="250" height="150" fill="none" stroke="#c9a66b" stroke-width="2"/>
    <rect x="50" y="100" width="150" height="250" fill="none" stroke="#c9a66b" stroke-width="2"/>
    <rect x="50" y="350" width="250" height="150" fill="none" stroke="#c9a66b" stroke-width="2"/>
    <rect x="300" y="100" width="200" height="400" fill="none" stroke="#c9a66b" stroke-width="2"/>
    <path d="
        M 275 275
        A 25 25 0 0 1 250 250
        A 25 25 0 0 1 225 275
        A 50 50 0 0 1 275 325
        A 75 75 0 0 1 300 275
        A 125 125 0 0 1 200 125
        A 200 200 0 0 1 425 325
        A 325 325 0 0 1 125 425
      " fill="none" stroke="#e8d5b7" stroke-width="3" stroke-linecap="round"/>
</svg>